PathFileType	4	(X/Y/Z)	..\data\2014048\dynamic\2014048_C4_01.trc
DataRate	CameraRate	NumFrames	NumMarkers	Units	OrigDataRate	OrigDataStartFrame	OrigNumFrames
100.000000	100.000000	4	52	mm	100.000000	139	186
Frame#	Time	L_IAS			L_IPS			R_IPS			R_IAS			L_FTC			L_FLE			L_FME			L_FAX			L_TTC			L_FAL			L_TAM			L_FCC			L_FM1			L_FM2			L_FM5			R_FTC			R_FLE			R_FME			R_FAX			R_TTC			R_FAL			R_TAM			R_FCC			R_FM1			R_FM2			R_FM5			CV7			TV10			SXS			SJN			L_SIA			L_SRS			L_SAA			L_SAE			L_HLE			L_HME			L_UOA			L_RSP			L_UHE			L_HM2			L_HM5			R_SIA			R_SRS			R_SAA			R_SAE			R_HLE			R_HME			R_UOA			R_RSP			R_UHE			R_HM2			R_HM5			
		X1	Y1	Z1	X2	Y2	Z2	X3	Y3	Z3	X4	Y4	Z4	X5	Y5	Z5	X6	Y6	Z6	X7	Y7	Z7	X8	Y8	Z8	X9	Y9	Z9	X10	Y10	Z10	X11	Y11	Z11	X12	Y12	Z12	X13	Y13	Z13	X14	Y14	Z14	X15	Y15	Z15	X16	Y16	Z16	X17	Y17	Z17	X18	Y18	Z18	X19	Y19	Z19	X20	Y20	Z20	X21	Y21	Z21	X22	Y22	Z22	X23	Y23	Z23	X24	Y24	Z24	X25	Y25	Z25	X26	Y26	Z26	X27	Y27	Z27	X28	Y28	Z28	X29	Y29	Z29	X30	Y30	Z30	X31	Y31	Z31	X32	Y32	Z32	X33	Y33	Z33	X34	Y34	Z34	X35	Y35	Z35	X36	Y36	Z36	X37	Y37	Z37	X38	Y38	Z38	X39	Y39	Z39	X40	Y40	Z40	X41	Y41	Z41	X42	Y42	Z42	X43	Y43	Z43	X44	Y44	Z44	X45	Y45	Z45	X46	Y46	Z46	X47	Y47	Z47	X48	Y48	Z48	X49	Y49	Z49	X50	Y50	Z50	X51	Y51	Z51	X52	Y52	Z52	

140	1.39	1294.1748046875	878.6006469726565	-365.1581726074219	1097.881591796875	934.117370605469	-293.1983032226563	1104.954711914063	938.5567626953127	-185.2850341796875	1309.603393554688	892.3020629882815	-129.9319305419922	1213.750854492188	858.771423339844	-425.3729553222657	1187.43798828125	434.6582336425782	-404.302215576172	1218.7919921875	417.4758911132814	-277.9385070800782	1145.042724609375	390.819793701172	-408.2070922851564	1190.501586914063	350.2475585937501	-359.0625000000001	903.8100585937502	175.5125122070313	-365.0761413574219	944.9239501953127	167.9082946777344	-284.8333129882813	852.8731079101565	184.8880767822266	-302.6684875488282	957.0526123046877	44.25852203369141	-278.8924865722657	957.2993774414065	39.64963150024415	-326.2139892578126	906.6272583007815	51.1586036682129	-369.6297912597657	1236.4599609375	871.0439453125002	-47.05379104614259	1308.469116210938	444.6662597656251	-111.7188873291016	1299.693969726563	447.631072998047	-242.9874572753907	1304.15869140625	388.8929748535157	-109.8184814453125	1354.012451171875	394.2303466796876	-173.1564025878907	1323.356201171875	62.39258575439455	-145.7389831542969	1332.218505859375	89.36315155029298	-231.6455535888672	1276.06640625	22.69307708740235	-195.2519073486329	1454.739501953125	23.1064624786377	-225.221176147461	1459.248413085938	33.80569458007813	-172.4762725830078	1413.272338867188	22.01138496398926	-127.4775695800782	1144.454223632813	1391.598999023438	-250.7477569580079	1100.04638671875	1109.495727539063	-252.2538604736329	1315.356811523438	1089.107788085938	-238.6480102539063	1260.279907226563	1312.653076171875	-247.8070068359376	1077.756591796875	1171.632202148438	-331.0844726562501	1106.445556640625	1313.496215820313	-336.7603454589844	1152.868408203125	1319.1318359375	-410.9395446777345	1201.976684570313	1324.343994140625	-415.6486816406251	1187.682739257813	1014.299499511719	-489.6914367675782	1169.6171875	999.8372802734377	-407.5333557128907	1165.279174804688	983.0154418945315	-452.8114013671876	1322.500854492188	803.1384277343752	-465.7833862304689	1264.946411132813	795.4761962890627	-519.6791381835939	1355.43896484375	718.8674926757814	-471.3102416992189	1276.132080078125	717.0625610351564	-527.0615844726564	1073.991943359375	1165.09765625	-169.531234741211	1096.6484375	1309.020874023438	-170.0463409423828	1139.893798828125	1316.587280273438	-93.51650238037111	1184.89013671875	1314.614868164063	-71.74421691894533	1117.889526367188	1005.640686035156	-29.98629951477051	1124.823486328125	995.0043945312502	-111.4614181518555	1101.732543945313	987.0014648437502	-66.60070037841798	1213.647216796875	779.0828247070315	-9.59732246398926	1133.989135742188	775.4338378906252	3.262335777282716	1223.990600585938	688.4628295898439	0.8123755455017092	1126.44482421875	702.3937988281251	7.474349975585939	
141	1.4	1302.995849609375	879.6076660156252	-364.0250549316407	1106.5517578125	934.861267089844	-292.2007141113282	1113.837158203125	939.5015869140627	-184.2828216552735	1318.412963867188	892.8338623046877	-128.5743103027344	1222.814819335938	859.4885864257815	-424.3784484863282	1207.704711914063	434.7560424804689	-405.2085266113282	1239.570678710938	417.7574768066407	-278.7389526367188	1165.80810546875	391.2838745117189	-409.202362060547	1210.659423828125	350.5775146484376	-359.6836853027344	919.4196777343752	182.9181060791016	-365.7736511230469	960.4941406250002	173.831527709961	-285.4961853027344	868.7951660156252	194.0630798339844	-303.3415832519532	967.8410644531252	48.27559280395509	-280.8913269042969	967.756286621094	43.22542572021485	-327.6582946777344	917.6441650390627	58.58253479003908	-371.0264282226563	1245.159423828125	871.5610961914065	-45.75604248046876	1312.604370117188	444.6370239257814	-111.1893157958985	1304.182861328125	447.7853393554689	-242.3877563476563	1307.649780273438	388.7800903320314	-109.4181823730469	1357.686889648438	393.7788085937501	-172.6543579101563	1323.453247070313	62.27272796630861	-145.9816284179688	1332.531005859375	89.17767333984376	-231.9006500244141	1276.002075195313	22.58746528625489	-195.3961334228516	1454.700805664063	22.68796539306641	-225.3279113769532	1459.273803710938	33.64861297607423	-172.5507202148438	1413.156494140625	21.92698860168457	-127.5098953247071	1153.625122070313	1392.660766601563	-250.0050048828126	1109.23486328125	1110.5625	-250.7552185058594	1324.555908203125	1090.231689453125	-237.8011322021485	1269.466674804688	1313.78173828125	-247.2830657958985	1086.515502929688	1172.447875976563	-329.2777404785157	1115.251098632813	1314.253662109375	-335.5373229980469	1161.16015625	1319.615356445313	-409.9343872070314	1210.322875976563	1324.822998046875	-414.9375000000001	1194.40185546875	1014.590576171875	-487.4115600585939	1176.8671875	1000.522216796875	-405.1310119628907	1171.884521484375	983.890808105469	-450.2193908691407	1325.837158203125	801.3296508789065	-463.5721740722657	1268.086303710938	794.6619262695315	-517.3784179687501	1356.536010742188	716.0456542968751	-468.443572998047	1277.413696289063	715.9766235351564	-524.4013671875001	1084.17578125	1166.179809570313	-167.5741119384766	1106.207641601563	1310.3330078125	-168.7981719970703	1150.079223632813	1318.3037109375	-92.40728759765626	1195.033447265625	1316.210571289063	-71.02208709716798	1130.162353515625	1006.525939941406	-27.38094329833985	1135.849853515625	995.996276855469	-108.7991790771485	1113.563354492188	987.6064453125002	-63.55672454833986	1230.824096679688	782.160583496094	-7.779290199279787	1151.431396484375	776.5842895507815	5.473060607910157	1243.694213867188	692.1206665039064	2.898999452590943	1145.783203125	703.2624511718751	9.759086608886721	
142	1.41	1311.66845703125	880.5833740234377	-363.1832580566407	1115.035522460938	935.4546508789065	-291.2650146484376	1122.44970703125	940.3114013671877	-183.4102020263672	1327.017456054688	893.2830200195315	-127.3252182006836	1231.5849609375	860.1419067382815	-423.5004272460939	1227.886474609375	435.1994018554689	-405.8999328613282	1259.978759765625	418.5653686523439	-279.2059326171876	1186.557861328125	392.0154418945314	-409.9169921875001	1230.911499023438	351.2652893066407	-359.9783935546876	935.8723144531252	189.8687133789063	-366.1913757324219	976.9182128906252	179.4178161621094	-285.9131774902344	885.487243652344	202.0856323242188	-303.6690063476563	980.804626464844	52.29722213745119	-283.4077453613282	980.3972778320315	47.14474105834962	-329.6720581054688	930.622253417969	66.10386657714845	-372.7840576171876	1253.614990234375	871.9688720703127	-44.58562088012696	1316.60888671875	444.5688476562501	-110.7083129882813	1308.634887695313	447.8916931152345	-241.8678894042969	1311.047729492188	388.654022216797	-109.0603637695313	1361.230834960938	393.3037719726564	-172.1632537841797	1323.515747070313	62.12704467773439	-146.174545288086	1332.786743164063	88.92180633544923	-232.1228332519532	1275.907592773438	22.48090934753418	-195.5122680664063	1454.642211914063	22.30775451660157	-225.4102783203126	1459.251953125	33.45703125000001	-172.633544921875	1413.038696289063	21.79205513000489	-127.5467681884766	1162.724487304688	1393.65625	-249.2589416503907	1118.229125976563	1111.5751953125	-249.3151397705079	1333.516845703125	1091.011596679688	-237.1675720214844	1278.552612304688	1314.740600585938	-246.8345794677735	1095.048583984375	1173.239501953125	-327.4295349121094	1123.9228515625	1314.954711914063	-334.3068847656251	1169.292114257813	1320.015869140625	-408.9596557617189	1218.504028320313	1325.19287109375	-414.2914428710939	1200.979736328125	1014.747375488281	-485.2003784179689	1184.012329101563	1001.0185546875	-402.8214111328126	1178.415283203125	984.6286621093752	-447.7002868652345	1329.074340820313	799.525329589844	-461.4097595214845	1271.15673828125	793.830993652344	-515.1360473632814	1357.565551757813	713.3031005859376	-465.6524658203126	1278.676513671875	714.9247436523439	-521.8140869140626	1094.25537109375	1167.182495117188	-165.5649108886719	1115.70703125	1311.602294921875	-167.5055236816407	1160.232299804688	1319.895263671875	-91.24684143066408	1205.174194335938	1317.623291015625	-70.30501556396486	1142.588745117188	1007.282531738281	-24.59264183044434	1146.822387695313	996.746032714844	-105.9094619750977	1125.547607421875	988.0623168945315	-60.26291275024415	1248.075439453125	785.110534667969	-6.003715515136721	1169.115356445313	777.6899414062502	7.842685222625734	1263.564819335938	695.8031005859376	4.999020099639893	1165.372436523438	704.1177978515626	12.24174594879151	
143	1.42	1320.240356445313	881.5615234375002	-362.5955200195313	1123.383666992188	935.9404907226565	-290.4196472167969	1130.824829101563	941.0229492187502	-182.6935272216797	1335.429809570313	893.7004394531252	-126.1817169189453	1240.132202148438	860.7719726562502	-422.7276916503907	1247.869384765625	436.0356750488282	-406.3851928710939	1279.956665039063	419.8952026367189	-279.3809814453126	1207.150146484375	393.0797729492189	-410.3668518066407	1251.171508789063	352.3345336914063	-360.0265502929688	953.1030883789065	196.2071990966797	-366.3323364257813	994.1892700195315	184.5080261230469	-286.1121826171876	902.891540527344	208.7897491455079	-303.6318969726563	995.950134277344	56.14196014404298	-286.4184265136719	995.218933105469	51.25901794433595	-332.2507324218751	945.5467529296877	73.46597290039064	-374.8702087402344	1261.814208984375	872.3082275390627	-43.57329559326173	1320.5234375	444.4820861816407	-110.275016784668	1313.049682617188	447.9676513671876	-241.4293518066407	1314.389892578125	388.5349731445314	-108.7393875122071	1364.66162109375	392.8177185058595	-171.6910552978516	1323.565307617188	61.97338104248048	-146.3164825439453	1333.003784179688	88.6208953857422	-232.3173980712891	1275.798461914063	22.3866081237793	-195.5923156738282	1454.57568359375	21.97505378723145	-225.4742279052735	1459.20556640625	33.24890899658204	-172.7196502685547	1412.93359375	21.63149452209473	-127.5795974731446	1171.744506835938	1394.601440429688	-248.5222320556641	1127.038330078125	1112.542602539063	-247.9559631347657	1342.251098632813	1091.482299804688	-236.7396087646485	1287.533935546875	1315.55029296875	-246.4572753906251	1103.376586914063	1174.0244140625	-325.5738830566407	1132.471069335938	1315.622192382813	-333.0889282226563	1177.296264648438	1320.36962890625	-408.0231018066407	1226.54443359375	1325.490112304688	-413.7089233398439	1207.4052734375	1014.811462402344	-483.053924560547	1191.02734375	1001.388977050781	-400.5923767089845	1184.84765625	985.2684326171877	-445.2524414062501	1332.217407226563	797.768737792969	-459.2990112304689	1274.150024414063	793.016052246094	-512.9440917968751	1358.5712890625	710.6981201171876	-462.963348388672	1279.937744140625	713.9382324218751	-519.3004150390626	1104.19580078125	1168.131225585938	-163.5363311767578	1125.128540039063	1312.8359375	-166.19091796875	1170.302978515625	1321.366455078125	-90.06239318847658	1215.285034179688	1318.8828125	-69.60567474365236	1155.198974609375	1007.951416015625	-21.65051460266114	1157.789184570313	997.284606933594	-102.8195343017578	1137.725463867188	988.4073486328127	-56.75642395019533	1265.3740234375	787.9473876953127	-4.303519248962403	1187.001220703125	778.788513183594	10.36277675628662	1283.5224609375	699.4968261718751	7.06727170944214	1185.145141601563	705.0079345703126	14.91483497619629	
